o cube
mtllib cube.mtl

v -0.500000 -0.500000 0.500000
v 0.500000 -0.500000 0.500000
v -0.500000 0.500000 0.500000
v 0.500000 0.500000 0.500000
v -0.500000 0.500000 -0.500000
v 0.500000 0.500000 -0.500000
v -0.500000 -0.500000 -0.500000
v 0.500000 -0.500000 -0.500000

vt 0.000000 0.000000
vt 1.000000 0.000000
vt 0.000000 1.000000
vt 1.000000 1.000000

vn 0.000000 0.000000 1.000000
vn 0.000000 1.000000 0.000000
vn 0.000000 0.000000 -1.000000
vn 0.000000 -1.000000 0.000000
vn 1.000000 0.000000 0.000000
vn -1.000000 0.000000 0.000000

g cube
usemtl cube
s 1
f 2/1/3 1/2/3 3/3/3
f 2/3/3 3/2/3 4/4/3
s 2
f 4/1/4 3/2/4 5/3/4
f 4/3/4 5/2/4 6/4/4
s 3
f 6/4/1 5/3/1 7/2/1
f 6/2/1 7/3/1 8/1/1
s 4
f 8/1/2 7/2/2 1/3/2
f 8/3/2 1/2/2 2/4/2
s 5
f 8/1/6 2/2/6 4/3/6
f 8/3/6 4/2/6 6/4/6
s 6
f 1/1/5 7/2/5 5/3/5
f 1/3/5 5/2/5 3/4/5

#1 <-> 3
#2 <-> 4
#5 <-> 6
